<svg aria-hidden="true" style="position: absolute; width: 0; height: 0; overflow: hidden;" version="1.1" xmlns="http://www.w3.org/2000/svg" xmlns:xlink="http://www.w3.org/1999/xlink">
<defs>
<symbol id="icon-close-icon" viewBox="0 0 32 32">
<path stroke-linejoin="round" stroke-linecap="round" stroke-miterlimit="4" stroke-width="3" d="M24 8l-16 16"></path>
<path stroke-linejoin="round" stroke-linecap="round" stroke-miterlimit="4" stroke-width="3" d="M8 8l16 16"></path>
</symbol>
<symbol id="icon-burger" viewBox="0 0 32 32">
<path stroke-linejoin="round" stroke-linecap="round" stroke-miterlimit="4" stroke-width="3.2" d="M5.333 8h21.333M5.333 16h10.667M5.333 24h21.333"></path>
</symbol>
<symbol id="icon-logo-dots" viewBox="0 0 32 32">
<path d="M29.082 0.314h-4.010c-1.237 0-2.24 0.983-2.24 2.195v3.929c0 1.212 1.003 2.195 2.24 2.195h4.010c1.237 0 2.24-0.983 2.24-2.195v-3.929c0-1.212-1.003-2.195-2.24-2.195z"></path>
<path d="M6.73 23.040h-4.318c-1.332 0-2.412 0.983-2.412 2.195v3.929c0 1.212 1.080 2.195 2.412 2.195h4.318c1.332 0 2.412-0.983 2.412-2.195v-3.929c0-1.212-1.080-2.195-2.412-2.195z"></path>
<path d="M6.25 11.582h-4.009c-1.237 0-2.24 0.983-2.24 2.195v3.929c0 1.212 1.003 2.195 2.24 2.195h4.009c1.237 0 2.24-0.983 2.24-2.195v-3.929c0-1.212-1.003-2.195-2.24-2.195z"></path>
<path d="M17.766 22.978h-4.009c-1.237 0-2.24 0.983-2.24 2.195l-0 3.929c0 1.212 1.003 2.196 2.241 2.196h4.009c1.237 0 2.24-0.983 2.24-2.196v-3.929c0-1.212-1.003-2.195-2.24-2.195z"></path>
<path d="M6.25 0.086h-4.009c-1.237 0-2.24 0.983-2.24 2.195v3.929c0 1.212 1.003 2.195 2.24 2.195h4.009c1.237 0 2.24-0.983 2.24-2.195v-3.929c0-1.212-1.003-2.195-2.24-2.195z"></path>
<path d="M18.076 11.697h-4.009c-1.237 0-2.24 0.983-2.24 2.195v3.929c0 1.212 1.003 2.195 2.24 2.195h4.009c1.237 0 2.24-0.983 2.24-2.195v-3.929c0-1.212-1.003-2.195-2.24-2.195z"></path>
<path d="M29.333 22.978h-4.009c-1.237 0-2.24 0.983-2.24 2.195v3.929c0 1.212 1.003 2.196 2.24 2.196h4.009c1.237 0 2.24-0.983 2.24-2.196v-3.929c0-1.212-1.003-2.195-2.24-2.195z"></path>
<path d="M17.591 0.224h-4.009c-1.237 0-2.24 0.983-2.24 2.195v3.929c0 1.212 1.003 2.195 2.24 2.195h4.009c1.237 0 2.24-0.984 2.24-2.196v-3.929c0-1.212-1.003-2.195-2.24-2.195z"></path>
<path d="M29.044 11.926h-4.009c-1.237 0-2.24 0.983-2.24 2.195v3.929c0 1.212 1.003 2.195 2.24 2.195h4.009c1.237 0 2.24-0.983 2.24-2.195v-3.929c0-1.212-1.003-2.195-2.24-2.195z"></path>
</symbol>
<symbol id="icon-logotext" viewBox="0 0 395 32">
<path d="M16.803 32c-10.101 0-16.803-6.272-16.803-16.043 0-9.557 6.606-15.957 16.563-15.957 8.377 0 14.265 4.395 15.127 11.008h-6.941c-0.67-3.797-3.878-5.931-8.186-5.931-6.032 0-9.622 4.352-9.622 10.88 0 7.168 4.021 10.965 9.861 10.965 5.074 0 8.329-2.56 8.665-6.4v-0.427h-9.335v-4.779h15.797v3.925c-0.287 7.637-6.319 12.757-15.127 12.757z"></path>
<path d="M36.115 31.573v-31.147h16.802c8.569 0 11.968 3.712 11.968 9.088 0 4.821-3.83 7.125-8.282 7.68v0.128c2.872 0.64 4.165 2.048 5.362 4.821 1.532 3.499 1.771 7.68 3.734 9.173v0.256h-7.659c-1.627-1.451-2.010-6.016-2.872-8.789-0.862-2.859-2.729-3.2-6.223-3.2h-6.127v11.989h-6.702zM42.817 14.635h9.383c3.925 0 5.744-2.048 5.744-4.693 0-2.901-2.25-4.565-5.744-4.565h-9.383v9.259z"></path>
<path d="M69.336 31.573v-31.147h23.887v4.949h-17.186v7.424h15.51v4.949h-15.51v8.747h17.425v5.077h-24.127z"></path>
<path d="M98.116 31.573v-31.147h23.887v4.949h-17.186v7.424h15.51v4.949h-15.51v8.747h17.425v5.077h-24.127z"></path>
<path d="M126.897 31.573v-31.147h8.138l11.585 17.195c3.542 5.205 3.973 6.912 3.973 6.912h0.143l-0.096-24.107h6.702v31.147h-8.186l-12.015-17.707c-2.729-4.011-3.447-6.443-3.447-6.443h-0.096v24.149h-6.702z"></path>
<path d="M162.384 31.573v-6.315h6.989v6.315h-6.989z"></path>
<path d="M174.406 31.573v-31.147h6.702v12.459h16.037v-12.459h6.702v31.147h-6.702v-13.739h-16.037v13.739h-6.702z"></path>
<path d="M206.711 31.573l13.404-31.147h7.276l13.595 31.147h-7.181l-2.824-7.168h-14.505l-2.824 7.168h-6.941zM218.391 19.456h10.675l-3.111-7.68c-2.154-5.675-2.202-6.699-2.202-6.699h-0.096c0 0 0 1.024-2.154 6.699l-3.111 7.68z"></path>
<path d="M243.841 31.573v-31.147h16.803c8.57 0 11.967 3.712 11.967 9.088 0 4.821-3.829 7.125-8.281 7.68v0.128c2.873 0.64 4.164 2.048 5.361 4.821 1.533 3.499 1.771 7.68 3.733 9.173v0.256h-7.658c-1.627-1.451-2.011-6.016-2.872-8.789-0.862-2.859-2.729-3.2-6.223-3.2h-6.127v11.989h-6.702zM250.543 14.635h9.382c3.926 0 5.745-2.048 5.745-4.693 0-2.901-2.25-4.565-5.745-4.565h-9.382v9.259z"></path>
<path d="M284.168 31.573l-12.829-31.147h7.181c0 0 6.941 17.451 7.659 19.584 1.149 3.413 1.675 5.163 1.675 5.163h0.096c-0.048 0 0.48-1.749 1.675-5.163 0.768-2.133 7.421-19.584 7.421-19.584h6.941l-12.352 31.147h-7.467z"></path>
<path d="M306.731 31.573v-31.147h23.888v4.949h-17.187v7.424h15.512v4.949h-15.512v8.747h17.427v5.077h-24.128z"></path>
<path d="M347.496 32c-8.904 0-14.267-4.309-14.267-10.709h7.661c-0.096 3.627 2.584 5.632 6.605 5.632 4.261 0 6.269-1.493 6.269-3.712s-1.723-3.157-7.851-4.651c-5.6-1.365-11.728-2.987-11.728-9.387 0-5.077 4.979-9.173 12.829-9.173 8.091 0 13.261 4.053 13.261 9.771h-7.421c-0.048-3.029-2.344-4.693-5.84-4.693-3.397 0-5.648 1.536-5.648 3.584 0 2.432 1.867 3.2 6.749 4.437 7.229 1.792 13.069 2.517 13.069 9.472 0 5.589-5.696 9.429-13.691 9.429z"></path>
<path d="M372.099 31.573v-26.069h-10.579v-5.077h27.813v5.077h-10.531v26.069h-6.704z"></path>
</symbol>
<symbol id="icon-logo_dskt_tbl" viewBox="0 0 346 32">
<path d="M29.082 0.314h-4.010c-1.237 0-2.24 0.983-2.24 2.195v3.929c0 1.212 1.003 2.195 2.24 2.195h4.010c1.237 0 2.24-0.983 2.24-2.195v-3.929c0-1.212-1.003-2.195-2.24-2.195z"></path>
<path d="M6.73 23.040h-4.318c-1.332 0-2.412 0.983-2.412 2.195v3.929c0 1.212 1.080 2.195 2.412 2.195h4.318c1.332 0 2.412-0.983 2.412-2.195v-3.929c0-1.212-1.080-2.195-2.412-2.195z"></path>
<path d="M6.25 11.582h-4.009c-1.237 0-2.24 0.983-2.24 2.195v3.929c0 1.212 1.003 2.195 2.24 2.195h4.009c1.237 0 2.24-0.983 2.24-2.195v-3.929c0-1.212-1.003-2.195-2.24-2.195z"></path>
<path d="M17.766 22.978h-4.009c-1.237 0-2.24 0.983-2.24 2.195l-0 3.929c0 1.212 1.003 2.196 2.241 2.196h4.009c1.237 0 2.24-0.983 2.24-2.196v-3.929c0-1.212-1.003-2.195-2.24-2.195z"></path>
<path d="M6.25 0.086h-4.009c-1.237 0-2.24 0.983-2.24 2.195v3.929c0 1.212 1.003 2.195 2.24 2.195h4.009c1.237 0 2.24-0.983 2.24-2.195v-3.929c0-1.212-1.003-2.195-2.24-2.195z"></path>
<path d="M18.076 11.697h-4.009c-1.237 0-2.24 0.983-2.24 2.195v3.929c0 1.212 1.003 2.195 2.24 2.195h4.009c1.237 0 2.24-0.983 2.24-2.195v-3.929c0-1.212-1.003-2.195-2.24-2.195z"></path>
<path d="M29.333 22.978h-4.009c-1.237 0-2.24 0.983-2.24 2.195v3.929c0 1.212 1.003 2.196 2.24 2.196h4.009c1.237 0 2.24-0.983 2.24-2.196v-3.929c0-1.212-1.003-2.195-2.24-2.195z"></path>
<path d="M17.591 0.224h-4.009c-1.237 0-2.24 0.983-2.24 2.195v3.929c0 1.212 1.003 2.195 2.24 2.195h4.009c1.237 0 2.24-0.984 2.24-2.196v-3.929c0-1.212-1.003-2.195-2.24-2.195z"></path>
<path d="M29.044 11.926h-4.009c-1.237 0-2.24 0.983-2.24 2.195v3.929c0 1.212 1.003 2.195 2.24 2.195h4.009c1.237 0 2.24-0.983 2.24-2.195v-3.929c0-1.212-1.003-2.195-2.24-2.195z"></path>
<path d="M59.112 30.223c-7.748 0-12.89-5.227-12.89-13.369 0-7.965 5.068-13.298 12.706-13.298 6.427 0 10.943 3.662 11.604 9.173h-5.325c-0.514-3.164-2.975-4.942-6.28-4.942-4.627 0-7.381 3.627-7.381 9.067 0 5.973 3.085 9.138 7.565 9.138 3.893 0 6.39-2.133 6.647-5.333v-0.356h-7.161v-3.982h12.118v3.271c-0.22 6.364-4.847 10.631-11.604 10.631z"></path>
<path d="M73.927 29.867v-25.956h12.89c6.573 0 9.181 3.093 9.181 7.573 0 4.018-2.938 5.938-6.353 6.4v0.107c2.203 0.533 3.195 1.707 4.113 4.018 1.175 2.916 1.359 6.4 2.864 7.644v0.213h-5.876c-1.248-1.209-1.542-5.013-2.203-7.324-0.661-2.382-2.093-2.667-4.774-2.667h-4.7v9.991h-5.141zM79.068 15.752h7.198c3.011 0 4.407-1.707 4.407-3.911 0-2.418-1.726-3.804-4.407-3.804h-7.198v7.716z"></path>
<path d="M99.412 29.867v-25.956h18.325v4.124h-13.183v6.187h11.898v4.124h-11.898v7.289h13.367v4.231h-18.508z"></path>
<path d="M121.49 29.867v-25.956h18.325v4.124h-13.184v6.187h11.898v4.124h-11.898v7.289h13.367v4.231h-18.508z"></path>
<path d="M143.568 29.867v-25.956h6.243l8.887 14.329c2.717 4.338 3.048 5.76 3.048 5.76h0.11l-0.074-20.089h5.141v25.956h-6.28l-9.217-14.756c-2.093-3.342-2.644-5.369-2.644-5.369h-0.073v20.124h-5.141z"></path>
<path d="M170.79 29.867v-5.262h5.362v5.262h-5.362z"></path>
<path d="M180.014 29.867v-25.956h5.141v10.382h12.302v-10.382h5.141v25.956h-5.141v-11.449h-12.302v11.449h-5.141z"></path>
<path d="M204.795 29.867l10.283-25.956h5.581l10.43 25.956h-5.509l-2.166-5.973h-11.128l-2.166 5.973h-5.325zM213.755 19.77h8.19l-2.387-6.4c-1.653-4.729-1.69-5.582-1.69-5.582h-0.074c0 0 0 0.853-1.653 5.582l-2.387 6.4z"></path>
<path d="M233.278 29.867v-25.956h12.89c6.574 0 9.181 3.093 9.181 7.573 0 4.018-2.938 5.938-6.354 6.4v0.107c2.205 0.533 3.195 1.707 4.114 4.018 1.176 2.916 1.358 6.4 2.864 7.644v0.213h-5.875c-1.248-1.209-1.542-5.013-2.203-7.324-0.661-2.382-2.093-2.667-4.774-2.667h-4.701v9.991h-5.141zM238.419 15.752h7.198c3.011 0 4.406-1.707 4.406-3.911 0-2.418-1.726-3.804-4.406-3.804h-7.198v7.716z"></path>
<path d="M264.214 29.867l-9.842-25.956h5.509c0 0 5.325 14.542 5.875 16.32 0.882 2.844 1.285 4.302 1.285 4.302h0.074c-0.037 0 0.368-1.458 1.285-4.302 0.589-1.778 5.693-16.32 5.693-16.32h5.325l-9.475 25.956h-5.728z"></path>
<path d="M281.523 29.867v-25.956h18.325v4.124h-13.184v6.187h11.898v4.124h-11.898v7.289h13.368v4.231h-18.509z"></path>
<path d="M312.795 30.223c-6.83 0-10.944-3.591-10.944-8.924h5.875c-0.074 3.022 1.984 4.693 5.069 4.693 3.267 0 4.81-1.244 4.81-3.093s-1.322-2.631-6.022-3.876c-4.296-1.138-8.997-2.489-8.997-7.822 0-4.231 3.819-7.644 9.842-7.644 6.206 0 10.173 3.378 10.173 8.142h-5.693c-0.037-2.524-1.798-3.911-4.48-3.911-2.606 0-4.333 1.28-4.333 2.987 0 2.027 1.432 2.667 5.178 3.698 5.546 1.493 10.026 2.098 10.026 7.893 0 4.658-4.37 7.858-10.502 7.858z"></path>
<path d="M331.669 29.867v-21.724h-8.115v-4.231h21.336v4.231h-8.080v21.724h-5.141z"></path>
</symbol>
<symbol id="icon-logo-mob" viewBox="0 0 336 32">
<path d="M29.082 0.314h-4.009c-1.237 0-2.24 0.983-2.24 2.195v3.929c0 1.212 1.003 2.195 2.24 2.195h4.009c1.237 0 2.24-0.983 2.24-2.195v-3.929c0-1.212-1.003-2.195-2.24-2.195z"></path>
<path d="M6.73 23.040h-4.318c-1.332 0-2.412 0.983-2.412 2.195v3.929c0 1.213 1.080 2.195 2.412 2.195h4.318c1.332 0 2.412-0.983 2.412-2.195v-3.929c0-1.212-1.080-2.195-2.412-2.195z"></path>
<path d="M6.25 11.582h-4.009c-1.237 0-2.24 0.983-2.24 2.195v3.929c0 1.212 1.003 2.195 2.24 2.195h4.009c1.237 0 2.24-0.983 2.24-2.195v-3.929c0-1.212-1.003-2.195-2.24-2.195z"></path>
<path d="M17.766 22.978h-4.009c-1.237 0-2.24 0.983-2.24 2.195l-0 3.929c0 1.212 1.003 2.195 2.241 2.195h4.009c1.237 0 2.24-0.983 2.24-2.195v-3.929c0-1.213-1.003-2.195-2.24-2.195z"></path>
<path d="M6.25 0.086h-4.009c-1.237 0-2.24 0.983-2.24 2.195v3.929c0 1.212 1.003 2.195 2.24 2.195h4.009c1.237 0 2.24-0.983 2.24-2.195v-3.929c0-1.212-1.003-2.195-2.24-2.195z"></path>
<path d="M18.076 11.697h-4.009c-1.237 0-2.24 0.983-2.24 2.195v3.929c0 1.212 1.003 2.195 2.24 2.195h4.009c1.237 0 2.24-0.983 2.24-2.195v-3.929c0-1.212-1.003-2.195-2.24-2.195z"></path>
<path d="M29.333 22.978h-4.010c-1.237 0-2.24 0.983-2.24 2.195v3.929c0 1.212 1.003 2.195 2.24 2.195h4.009c1.237 0 2.24-0.983 2.24-2.195v-3.929c0-1.213-1.003-2.195-2.24-2.195z"></path>
<path d="M17.591 0.224h-4.009c-1.237 0-2.24 0.983-2.24 2.195v3.929c0 1.212 1.003 2.195 2.24 2.195h4.009c1.237 0 2.24-0.984 2.24-2.196v-3.929c0-1.212-1.003-2.195-2.24-2.195z"></path>
<path d="M29.044 11.926h-4.010c-1.237 0-2.24 0.983-2.24 2.195v3.929c0 1.212 1.003 2.195 2.24 2.195h4.009c1.237 0 2.24-0.983 2.24-2.195v-3.929c0-1.212-1.003-2.195-2.24-2.195z"></path>
<path d="M52.602 28c-7.576 0-12.602-4.704-12.602-12.032 0-7.168 4.955-11.968 12.422-11.968 6.283 0 10.699 3.296 11.345 8.256h-5.206c-0.503-2.848-2.908-4.448-6.139-4.448-4.524 0-7.216 3.264-7.216 8.16 0 5.376 3.016 8.224 7.396 8.224 3.806 0 6.247-1.92 6.498-4.8v-0.32h-7.001v-3.584h11.848v2.944c-0.215 5.728-4.739 9.568-11.345 9.568z"></path>
<path d="M67.086 27.68v-23.36h12.602c6.427 0 8.976 2.784 8.976 6.816 0 3.616-2.872 5.344-6.211 5.76v0.096c2.154 0.48 3.124 1.536 4.021 3.616 1.149 2.624 1.328 5.76 2.8 6.88v0.192h-5.745c-1.221-1.088-1.508-4.512-2.154-6.592-0.646-2.144-2.046-2.4-4.667-2.4h-4.596v8.992h-5.026zM72.112 14.976h7.037c2.944 0 4.308-1.536 4.308-3.52 0-2.176-1.687-3.424-4.308-3.424h-7.037v6.944z"></path>
<path d="M92.002 27.68v-23.36h17.916v3.712h-12.889v5.568h11.633v3.712h-11.633v6.56h13.069v3.808h-18.095z"></path>
<path d="M113.587 27.68v-23.36h17.916v3.712h-12.889v5.568h11.633v3.712h-11.633v6.56h13.069v3.808h-18.095z"></path>
<path d="M135.172 27.68v-23.36h6.104l8.688 12.896c2.657 3.904 2.98 5.184 2.98 5.184h0.108l-0.072-18.080h5.026v23.36h-6.139l-9.012-13.28c-2.046-3.008-2.585-4.832-2.585-4.832h-0.072v18.112h-5.026z"></path>
<path d="M161.788 27.68v-4.736h5.242v4.736h-5.242z"></path>
<path d="M170.805 27.68v-23.36h5.026v9.344h12.028v-9.344h5.026v23.36h-5.026v-10.304h-12.028v10.304h-5.026z"></path>
<path d="M195.033 27.68l10.053-23.36h5.458l10.196 23.36h-5.386l-2.118-5.376h-10.878l-2.118 5.376h-5.207zM203.794 18.592h8.006l-2.334-5.76c-1.616-4.256-1.652-5.024-1.652-5.024h-0.072c0 0 0 0.768-1.614 5.024l-2.334 5.76z"></path>
<path d="M222.88 27.68v-23.36h12.602c6.428 0 8.976 2.784 8.976 6.816 0 3.616-2.872 5.344-6.21 5.76v0.096c2.154 0.48 3.122 1.536 4.020 3.616 1.15 2.624 1.328 5.76 2.8 6.88v0.192h-5.744c-1.22-1.088-1.508-4.512-2.154-6.592-0.646-2.144-2.046-2.4-4.668-2.4h-4.594v8.992h-5.028zM227.908 14.976h7.036c2.944 0 4.308-1.536 4.308-3.52 0-2.176-1.688-3.424-4.308-3.424h-7.036v6.944z"></path>
<path d="M253.126 27.68l-9.622-23.36h5.386c0 0 5.206 13.088 5.744 14.688 0.862 2.56 1.256 3.872 1.256 3.872h0.072c-0.036 0 0.36-1.312 1.256-3.872 0.576-1.6 5.566-14.688 5.566-14.688h5.206l-9.264 23.36h-5.6z"></path>
<path d="M270.048 27.68v-23.36h17.916v3.712h-12.89v5.568h11.634v3.712h-11.634v6.56h13.070v3.808h-18.096z"></path>
<path d="M300.622 28c-6.678 0-10.7-3.232-10.7-8.032h5.746c-0.072 2.72 1.938 4.224 4.954 4.224 3.196 0 4.702-1.12 4.702-2.784s-1.292-2.368-5.888-3.488c-4.2-1.024-8.796-2.24-8.796-7.040 0-3.808 3.734-6.88 9.622-6.88 6.068 0 9.946 3.040 9.946 7.328h-5.566c-0.036-2.272-1.758-3.52-4.38-3.52-2.548 0-4.236 1.152-4.236 2.688 0 1.824 1.4 2.4 5.062 3.328 5.422 1.344 9.802 1.888 9.802 7.104 0 4.192-4.272 7.072-10.268 7.072z"></path>
<path d="M319.074 27.68v-19.552h-7.934v-3.808h20.86v3.808h-7.898v19.552h-5.028z"></path>
</symbol>
<symbol id="icon-burgermob" viewBox="0 0 32 32">
<path stroke-linejoin="round" stroke-linecap="round" stroke-miterlimit="4" stroke-width="3" d="M5.333 8h21.333M5.333 16h10.667M5.333 24h21.333"></path>
</symbol>
</defs>
</svg>
