<!-- Generated by IcoMoon.io -->
<svg version="1.1" xmlns="http://www.w3.org/2000/svg" width="1024" height="1024" viewBox="0 0 1024 1024">
<g id="icomoon-ignore">
</g>
<path fill="#fbfbfb" d="M930.632 10.043h-128.307c-39.588 0-71.68 31.451-71.68 70.25v125.737c0 38.799 32.092 70.253 71.68 70.253h128.307c39.588 0 71.685-31.453 71.685-70.253v-125.737c0-38.799-32.097-70.25-71.685-70.25z"></path>
<path fill="#fbfbfb" d="M215.372 737.28h-138.173c-42.636 0-77.199 31.452-77.199 70.252v125.737c0 38.799 34.563 70.252 77.199 70.252h138.173c42.636 0 77.199-31.452 77.199-70.252v-125.737c0-38.799-34.564-70.252-77.199-70.252z"></path>
<path fill="#fbfbfb" d="M199.987 370.618h-128.303c-39.589 0-71.684 31.451-71.684 70.25v125.736c0 38.799 32.102 70.252 71.691 70.252h128.296c39.591 0 71.686-31.452 71.686-70.252v-125.736c0-38.799-32.095-70.25-71.686-70.25z"></path>
<path fill="#fbfbfb" d="M568.509 735.304h-128.304c-39.589 0-71.684 31.447-71.684 70.246l-0.007 125.737c0 38.799 32.11 70.257 71.699 70.257h128.296c39.593 0 71.685-31.457 71.685-70.257v-125.737c0-38.799-32.092-70.246-71.685-70.246z"></path>
<path fill="#fbfbfb" d="M199.987 2.761h-128.303c-39.589 0-71.684 31.451-71.684 70.25v125.737c0 38.799 32.102 70.253 71.691 70.253h128.296c39.591 0 71.686-31.453 71.686-70.253v-125.737c0-38.799-32.095-70.25-71.686-70.25z"></path>
<path fill="#fbfbfb" d="M578.427 374.319h-128.302c-39.589 0-71.684 31.451-71.684 70.25v125.737c0 38.799 32.102 70.252 71.691 70.252h128.294c39.593 0 71.685-31.452 71.685-70.252v-125.737c0-38.799-32.092-70.25-71.685-70.25z"></path>
<path fill="#fbfbfb" d="M938.665 735.304h-128.302c-39.588 0-71.685 31.447-71.685 70.246v125.737c0 38.799 32.102 70.257 71.695 70.257h128.292c39.593 0 71.69-31.457 71.69-70.257v-125.737c0-38.799-32.097-70.246-71.69-70.246z"></path>
<path fill="#fbfbfb" d="M562.898 7.159h-128.302c-39.589 0-71.684 31.451-71.684 70.251v125.736c0 38.799 32.102 70.253 71.691 70.253h128.295c39.593 0 71.685-31.477 71.685-70.276v-125.713c0-38.8-32.092-70.251-71.685-70.251z"></path>
<path fill="#fbfbfb" d="M929.398 381.626h-128.302c-39.588 0-71.685 31.451-71.685 70.25v125.736c0 38.799 32.102 70.252 71.695 70.252h128.292c39.593 0 71.69-31.452 71.69-70.252v-125.736c0-38.799-32.097-70.25-71.69-70.25z"></path>
</svg>
